<svg xmlns="http://www.w3.org/2000/svg" width="480" height="192" viewBox="0 0 480 192"><title>2GIS Logo/Light - L/Color RUS</title><g fill="none" fill-rule="evenodd"><path d="M0 0h480v192H0z"/><path fill="#19AA1E" d="M112 146c27.5 0 50-22.4 50-50s-22.5-50-50-50c-27.6 0-50 22.4-50 50s22.4 50 50 50z"/><path fill="#FFF" d="M112 63c16.5 0 27.7 12.7 27.7 26.4 0 5.5-1.2 10.3-4 16.3-16.4 0-19.4 10.9-20.1 18.2l-.5 5.1h-6.2l-.5-5.1c-.7-7.3-3.7-18.2-20.1-18.2-2.8-6-4-10.8-4-16.3C84.3 75.7 95.5 63 112 63z"/><path fill="#1A1A1A" d="M203.2 63c-15.6 0-27.3 9.5-27.2 26h14.5c-.2-6.6 4-13 12.7-13 6.6 0 10.8 4.4 10.8 10 0 5.8-4.6 9-12 12.6-9.7 4.7-15.5 6.9-26 10.4v19h53v-13h-33.4c5.013-2.09 9.891-4.384 14.3-6.5 11.7-5.6 18.6-11.9 18.6-23.2 0-13.6-10.2-22.3-25.3-22.3zM251 77h30V64h-44v64h14V77zm51-13h-14v64h13.9L328 87.1V128h14V64h-14l-26 40.9V64zm110.3 40h-14.5c-2.2 7.1-8.9 12-16.8 12-11.5 0-19-9.9-19-20s7.3-20 19.4-20c8 0 14.2 4.9 16.4 12h14.5c-2.1-14.3-13.4-25-31.3-25-19.8 0-33 13.9-33 33s13.2 33 33 33c17.9 0 29.2-10.5 31.3-25z"/></g></svg>